<svg id="video-camera" xmlns="http://www.w3.org/2000/svg" width="26" height="22.852" viewBox="0 0 26 22.852">
  <path id="Path_17" data-name="Path 17" d="M25.641,41.271a.762.762,0,0,0-.739-.037l-5.1,2.507v-.808a2.8,2.8,0,0,0-1.8-2.61,5.33,5.33,0,1,0-8.1-6.735,5.33,5.33,0,1,0-8.1,6.735A2.8,2.8,0,0,0,0,42.934v8.125a2.8,2.8,0,0,0,2.793,2.793H17.012A2.8,2.8,0,0,0,19.8,51.059v-.808l5.1,2.507a.762.762,0,0,0,1.1-.684V41.918a.762.762,0,0,0-.359-.647ZM14.473,32.523a3.809,3.809,0,1,1-3.809,3.809A3.813,3.813,0,0,1,14.473,32.523Zm-3.728,7.617H9.06A5.367,5.367,0,0,0,9.9,39.076,5.367,5.367,0,0,0,10.745,40.141ZM1.523,36.332a3.809,3.809,0,1,1,3.809,3.809A3.813,3.813,0,0,1,1.523,36.332ZM18.281,51.059a1.271,1.271,0,0,1-1.27,1.27H2.793a1.271,1.271,0,0,1-1.27-1.27V42.934a1.271,1.271,0,0,1,1.27-1.27H17.012a1.271,1.271,0,0,1,1.27,1.27v8.125Zm6.2-.208-4.672-2.3V45.439l4.672-2.3Z" transform="translate(0 -31)" fill="#ff764e"/>
  <path id="Path_18" data-name="Path 18" d="M62.285,95.57A2.285,2.285,0,1,0,60,93.285,2.288,2.288,0,0,0,62.285,95.57Zm0-3.047a.762.762,0,1,1-.762.762A.763.763,0,0,1,62.285,92.523Z" transform="translate(-56.953 -87.953)" fill="#ff764e"/>
  <path id="Path_19" data-name="Path 19" d="M242.285,95.57A2.285,2.285,0,1,0,240,93.285,2.288,2.288,0,0,0,242.285,95.57Zm0-3.047a.762.762,0,1,1-.762.762A.763.763,0,0,1,242.285,92.523Z" transform="translate(-227.813 -87.953)" fill="#ff764e"/>
  <path id="Path_20" data-name="Path 20" d="M196.348,271h-5.586a.762.762,0,0,0-.762.762v4.57a.762.762,0,0,0,.762.762h5.586a.762.762,0,0,0,.762-.762v-4.57A.762.762,0,0,0,196.348,271Zm-.762,4.57h-4.062v-3.047h4.063Z" transform="translate(-180.352 -258.813)" fill="#ff764e"/>
  <path id="Path_21" data-name="Path 21" d="M64.316,391H60.762a.762.762,0,0,0,0,1.523h3.555a.762.762,0,0,0,0-1.523Z" transform="translate(-56.953 -372.719)" fill="#ff764e"/>
  <path id="Path_22" data-name="Path 22" d="M64.316,331H60.762a.762.762,0,0,0,0,1.523h3.555a.762.762,0,0,0,0-1.523Z" transform="translate(-56.953 -315.766)" fill="#ff764e"/>
</svg>
