<svg id="cinema" xmlns="http://www.w3.org/2000/svg" width="23.073" height="23.061" viewBox="0 0 23.073 23.061">
  <path id="Path_23" data-name="Path 23" d="M22.4,8.323H8.188L22.109,5.443a.676.676,0,0,0,.525-.8L21.808.672a.676.676,0,0,0-.8-.524L1.065,4.276a.676.676,0,0,0-.525.8l.453,2.18a2.027,2.027,0,0,0,.358,3.655V22.518a.676.676,0,0,0,.676.676H22.4a.676.676,0,0,0,.676-.676V9A.676.676,0,0,0,22.4,8.323Zm-9.183,4.056,2.7-2.7h3.5l-2.7,2.7Zm-5.408,0,2.7-2.7h3.5l-2.7,2.7Zm-5.1,0V10.911A2.037,2.037,0,0,0,3.939,9.675H8.6l-2.7,2.7ZM1.352,9a.676.676,0,1,1,.676.676A.677.677,0,0,1,1.352,9Zm19.973.676h.4v2.7h-3.1ZM10.409,3.723l3.2,2.1-3.427.709-3.2-2.1Zm5.3-1.1,3.2,2.1-3.427.709-3.2-2.1Zm5.463,1.63-.389.08-3.2-2.1,3.039-.629ZM5.109,4.82l3.2,2.1-4.6.951A2.031,2.031,0,0,0,2.32,6.993L2,5.463ZM21.721,21.842H2.7V13.731H21.721Z" transform="translate(0 -0.134)" fill="#ff764e"/>
</svg>
