<svg id="space-station" xmlns="http://www.w3.org/2000/svg" width="119.853" height="119.838" viewBox="0 0 119.853 119.838">
  <g id="Group_1" data-name="Group 1" transform="translate(2.341 2.341)">
    <path id="Path_1" data-name="Path 1" d="M14.321,69.064l54.72-54.72-.005-.005a2.516,2.516,0,0,0,.737-1.67c0-.045,0-.09,0-.136a2.524,2.524,0,0,0-2.545-2.5A57.532,57.532,0,0,0,10.008,67.063a2.531,2.531,0,0,0,4.313,2Z" transform="translate(-9.999 -10.031)" fill="#fff" fill-rule="evenodd"/>
    <path id="Path_2" data-name="Path 2" d="M77.69,22.978,22.971,77.7a2.521,2.521,0,0,1-1.678.739,55.13,55.13,0,0,0,2.278,13.658L92.085,23.58A55.132,55.132,0,0,0,78.422,21.3a2.516,2.516,0,0,1-.737,1.67Z" transform="translate(-18.649 -18.663)" fill="#a7bdcd" fill-rule="evenodd"/>
    <path id="Path_3" data-name="Path 3" d="M94,25.468,25.483,93.982l-.957.957,0,0a2.526,2.526,0,0,0-.591,2.639,57.015,57.015,0,0,0,7.3,13.954,2.533,2.533,0,0,0,3.745.663,2.492,2.492,0,0,0,.209-.188L63.807,83.393V70.15L106.155,27.8q-.617-.344-1.24-.671a57.238,57.238,0,0,0-7.148-3.149,2.532,2.532,0,0,0-2.812.527Z" transform="translate(-20.561 -20.552)" fill="#c5d3de" fill-rule="evenodd"/>
    <path id="Path_4" data-name="Path 4" d="M237.089,41,194.74,83.349V96.593l48.222-48.222,0,0a2.511,2.511,0,0,0,.184-.206c.027-.034.053-.068.079-.1a2.525,2.525,0,0,0-.573-3.524A57.4,57.4,0,0,0,237.089,41Z" transform="translate(-151.495 -33.751)" fill="#fff" fill-rule="evenodd"/>
    <path id="Path_5" data-name="Path 5" d="M148.641,71.794l-48.222,48.222L71.8,148.634a2.5,2.5,0,0,1-.209.187,55.128,55.128,0,0,0,9.109,9.107,2.551,2.551,0,0,1,.189-.211l0,0L157.72,80.877a2.515,2.515,0,0,1,.208-.187,54.974,54.974,0,0,0-4.284-4.819,55.565,55.565,0,0,0-4.823-4.289,2.509,2.509,0,0,1-.184.206Z" transform="translate(-57.174 -57.174)" fill="#a7bdcd" fill-rule="evenodd"/>
    <path id="Path_6" data-name="Path 6" d="M185.72,108.863,108.885,185.7l0,0a2.55,2.55,0,0,0-.189.211q-.038.048-.075.1a2.524,2.524,0,0,0,.574,3.524,56.989,56.989,0,0,0,13.946,7.35,2.532,2.532,0,0,0,2.812-.527l.954-.954,36.556-36.556V145.607l30.064-30.064a57.133,57.133,0,0,0-3.858-6.205,2.532,2.532,0,0,0-3.954-.475Z" transform="translate(-85.174 -85.159)" fill="#fff" fill-rule="evenodd"/>
    <path id="Path_7" data-name="Path 7" d="M344.461,169.891v13.243l31.95-31.95.965-.965,0,0a2.526,2.526,0,0,0,.591-2.639,57.3,57.3,0,0,0-3.21-7.32q-.113-.215-.228-.429Z" transform="translate(-266.168 -109.443)" fill="#ff764e" fill-rule="evenodd"/>
    <path id="Path_8" data-name="Path 8" d="M256.8,188.343l-31.95,31.95L188.3,256.849a55.154,55.154,0,0,0,13.669,2.278,2.517,2.517,0,0,1,.737-1.677l-.005-.005,22.155-22.155,32.557-32.557a2.521,2.521,0,0,1,1.682-.739A55,55,0,0,0,256.8,188.343Z" transform="translate(-146.561 -146.602)" fill="#a7bdcd" fill-rule="evenodd"/>
    <path id="Path_9" data-name="Path 9" d="M335.57,247.39l-32.557,32.557V293.19l-12.668,12.668a57.514,57.514,0,0,0,49.537-56.466,2.531,2.531,0,0,0-4.313-2Z" transform="translate(-224.72 -191.259)" fill="#c5d3de" fill-rule="evenodd"/>
    <path id="Path_10" data-name="Path 10" d="M269.57,402.14V388.9l-22.155,22.155.005.005a2.517,2.517,0,0,0-.737,1.677q0,.064,0,.129a2.525,2.525,0,0,0,2.545,2.5,57.793,57.793,0,0,0,7.676-.558Z" transform="translate(-191.277 -300.209)" fill="#fff" fill-rule="evenodd"/>
  </g>
  <g id="Group_2" data-name="Group 2">
    <path id="Path_11" data-name="Path 11" d="M118.426,56.848a4.87,4.87,0,0,0-1.313-.932,57.413,57.413,0,0,0-1.9-11.122c.049-.05.1-.1.14-.153a4.89,4.89,0,0,0,.987-4.924,59.292,59.292,0,0,0-7.553-14.467,4.865,4.865,0,0,0-4.967-2.176c-1.066-1.268-2.19-2.494-3.354-3.659S98.078,17.132,96.8,16.06a4.849,4.849,0,0,0-1.945-4.807A59.362,59.362,0,0,0,80.407,3.625,4.906,4.906,0,0,0,75.1,4.661,57.528,57.528,0,0,0,63.964,2.77,4.848,4.848,0,0,0,59.6.032h-.042A59.872,59.872,0,0,0,.01,59.31,4.858,4.858,0,0,0,2.744,64a57.491,57.491,0,0,0,1.89,11.127c-.047.048-.092.1-.134.147a4.89,4.89,0,0,0-.986,4.922,59.344,59.344,0,0,0,7.553,14.467,4.849,4.849,0,0,0,4.97,2.177c1.071,1.273,2.193,2.5,3.351,3.657s2.39,2.286,3.665,3.358a4.85,4.85,0,0,0,1.946,4.8,59.311,59.311,0,0,0,14.452,7.628,4.841,4.841,0,0,0,5.311-1.034A57.548,57.548,0,0,0,55.9,117.137a4.849,4.849,0,0,0,4.364,2.733H60.3A59.858,59.858,0,0,0,119.843,60.6a4.865,4.865,0,0,0-1.417-3.752Zm-61.6,54.711a2.333,2.333,0,0,0-.169.188,4.893,4.893,0,0,0-.534.712,52.919,52.919,0,0,1-7.488-1.085l62.711-62.711a52.722,52.722,0,0,1,1.091,7.479,4.894,4.894,0,0,0-.9.7Zm53.23-74.849c.693,1.5,1.322,3.031,1.879,4.586a.188.188,0,0,1-.044.195c-.037.037-.072.074-.106.113L82.975,70.412V63.79ZM92.2,15.173a.179.179,0,0,1-.034.14.154.154,0,0,1-.019.022c-.041.041-.08.084-.118.127l-44.1,44.1V52.941l40.39-40.39c1.3.781,2.574,1.617,3.808,2.5a.173.173,0,0,1,.074.119ZM4.691,59.426a55.191,55.191,0,0,1,54.9-54.713h0a.183.183,0,0,1,.127.313q-.066.066-.126.136L5.007,59.751a.182.182,0,0,1-.135.056.18.18,0,0,1-.135-.056.184.184,0,0,1-.055-.151q.007-.086.008-.173ZM11,85.632a55.073,55.073,0,0,1-3.079-7.019.188.188,0,0,1,.044-.195c.037-.037.073-.075.107-.114L19.821,66.554a2.341,2.341,0,0,0-3.311-3.311l-8,8a52.887,52.887,0,0,1-1.085-7.484,4.9,4.9,0,0,0,.9-.7l54.72-54.72a2.347,2.347,0,0,0,.17-.189,4.9,4.9,0,0,0,.53-.706,52.9,52.9,0,0,1,7.486,1.086L31.408,48.346a2.341,2.341,0,1,0,3.311,3.311L78.391,7.985a.194.194,0,0,1,.213-.04q.073.032.149.059a55.18,55.18,0,0,1,5.269,2.221l-40.09,40.09a2.341,2.341,0,0,0-.686,1.655V64.244L15.313,92.177a.182.182,0,0,1-.135.056.18.18,0,0,1-.135-.056.207.207,0,0,1-.032-.04c-.029-.048-.06-.094-.092-.139A55.112,55.112,0,0,1,11,85.632Zm8.929,8.55L94.155,19.956c1.04.891,2.047,1.816,3,2.77s1.883,1.965,2.769,3L25.7,99.952c-1.04-.891-2.046-1.816-3-2.77s-1.879-1.96-2.77-3Zm21.327,17.776c-.049-.022-.1-.041-.148-.059a54.634,54.634,0,0,1-13.374-7.049.184.184,0,0,1-.043-.255.189.189,0,0,1,.023-.027c.041-.041.08-.084.118-.127l76.711-76.711a.19.19,0,0,1,.269,0,.186.186,0,0,1,.029.037c.03.049.062.1.095.144,1.023,1.433,1.979,2.921,2.857,4.441L78.979,61.165a2.341,2.341,0,0,0-.686,1.655V75.094L41.469,111.918A.193.193,0,0,1,41.256,111.958Zm19.014,3.23a.183.183,0,0,1-.131-.313c.044-.044.087-.09.127-.137L78.293,96.711v6.622L66.869,114.757A55.763,55.763,0,0,1,60.271,115.188Zm54.891-54.7A55.175,55.175,0,0,1,75.2,113.051l7.092-7.092a2.341,2.341,0,0,0,.686-1.655V92.03l31.871-31.871a.19.19,0,0,1,.269,0,.184.184,0,0,1,.055.152C115.165,60.368,115.163,60.426,115.162,60.483Z" transform="translate(0 -0.032)"/>
    <path id="Path_12" data-name="Path 12" d="M225.238,372a2.341,2.341,0,0,0-3.307.158h0a2.341,2.341,0,1,0,3.308-.159Z" transform="translate(-169.513 -284.463)"/>
    <path id="Path_13" data-name="Path 13" d="M179.5,414.587h0a2.341,2.341,0,1,0,3.308-.159A2.341,2.341,0,0,0,179.5,414.589Z" transform="translate(-137.017 -316.958)"/>
    <path id="Path_14" data-name="Path 14" d="M157.851,63.274a2.341,2.341,0,1,0-1.731-3.916h0a2.341,2.341,0,0,0,1.732,3.915Z" transform="translate(-119.108 -44.884)"/>
    <path id="Path_15" data-name="Path 15" d="M115.423,105.7a2.341,2.341,0,1,0-1.731-3.916h0a2.341,2.341,0,0,0,1.732,3.915Z" transform="translate(-86.611 -77.38)"/>
    <path id="Path_16" data-name="Path 16" d="M101.762,240a2.335,2.335,0,0,0,1.733-.766h0a2.341,2.341,0,1,0-1.734.767Z" transform="translate(-76.148 -180.242)"/>
  </g>
</svg>
